<svg xmlns="http://www.w3.org/2000/svg" viewBox="0 0 256 256">
  <rect width="256" height="256" fill="#0B0E17"/>
  <circle cx="23" cy="18" r="1" fill="#FFFFFF" fill-opacity="0.3"/>
  <circle cx="67" cy="12" r="1" fill="#FFFFFF" fill-opacity="0.25"/>
  <circle cx="112" cy="34" r="1" fill="#FFFFFF" fill-opacity="0.4"/>
  <circle cx="198" cy="22" r="1" fill="#FFFFFF" fill-opacity="0.35"/>
  <circle cx="241" cy="41" r="1" fill="#FFFFFF" fill-opacity="0.2"/>
  <circle cx="45" cy="58" r="1" fill="#FFFFFF" fill-opacity="0.5"/>
  <circle cx="88" cy="72" r="1.5" fill="#FFFFFF" fill-opacity="0.6"/>
  <circle cx="155" cy="55" r="1" fill="#FFFFFF" fill-opacity="0.3"/>
  <circle cx="210" cy="68" r="1" fill="#FFFFFF" fill-opacity="0.45"/>
  <circle cx="30" cy="95" r="1" fill="#FFFFFF" fill-opacity="0.25"/>
  <circle cx="128" cy="88" r="2" fill="#FFFFFF" fill-opacity="0.7"/>
  <circle cx="175" cy="102" r="1" fill="#FFFFFF" fill-opacity="0.35"/>
  <circle cx="232" cy="91" r="1" fill="#FFFFFF" fill-opacity="0.4"/>
  <circle cx="58" cy="118" r="1" fill="#FFFFFF" fill-opacity="0.3"/>
  <circle cx="102" cy="125" r="1.5" fill="#FFFFFF" fill-opacity="0.55"/>
  <circle cx="145" cy="112" r="1" fill="#FFFFFF" fill-opacity="0.2"/>
  <circle cx="190" cy="130" r="1" fill="#FFFFFF" fill-opacity="0.45"/>
  <circle cx="15" cy="142" r="1" fill="#FFFFFF" fill-opacity="0.35"/>
  <circle cx="78" cy="155" r="1" fill="#FFFFFF" fill-opacity="0.5"/>
  <circle cx="220" cy="148" r="1" fill="#FFFFFF" fill-opacity="0.3"/>
  <circle cx="38" cy="170" r="1.5" fill="#FFFFFF" fill-opacity="0.5"/>
  <circle cx="120" cy="165" r="1" fill="#FFFFFF" fill-opacity="0.4"/>
  <circle cx="165" cy="178" r="1" fill="#FFFFFF" fill-opacity="0.25"/>
  <circle cx="205" cy="172" r="2" fill="#FFFFFF" fill-opacity="0.7"/>
  <circle cx="248" cy="165" r="1" fill="#FFFFFF" fill-opacity="0.35"/>
  <circle cx="55" cy="195" r="1" fill="#FFFFFF" fill-opacity="0.3"/>
  <circle cx="95" cy="202" r="1" fill="#FFFFFF" fill-opacity="0.45"/>
  <circle cx="140" cy="192" r="1.5" fill="#FFFFFF" fill-opacity="0.65"/>
  <circle cx="185" cy="208" r="1" fill="#FFFFFF" fill-opacity="0.2"/>
  <circle cx="230" cy="198" r="1" fill="#FFFFFF" fill-opacity="0.4"/>
  <circle cx="20" cy="218" r="1" fill="#FFFFFF" fill-opacity="0.5"/>
  <circle cx="72" cy="225" r="1" fill="#FFFFFF" fill-opacity="0.3"/>
  <circle cx="110" cy="235" r="1" fill="#FFFFFF" fill-opacity="0.35"/>
  <circle cx="160" cy="222" r="2" fill="#FFFFFF" fill-opacity="0.7"/>
  <circle cx="200" cy="240" r="1" fill="#FFFFFF" fill-opacity="0.25"/>
  <circle cx="245" cy="228" r="1" fill="#FFFFFF" fill-opacity="0.45"/>
  <circle cx="48" cy="248" r="1.5" fill="#FFFFFF" fill-opacity="0.75"/>
  <circle cx="135" cy="245" r="1" fill="#FFFFFF" fill-opacity="0.4"/>
  <circle cx="178" cy="250" r="1" fill="#FFFFFF" fill-opacity="0.3"/>
</svg>
